<?xml version="1.0" encoding="utf-8"?>
<!-- Generator: Adobe Illustrator 25.3.1, SVG Export Plug-In . SVG Version: 6.00 Build 0)  -->
<svg version="1.1" id="레이어_1" xmlns="http://www.w3.org/2000/svg" xmlns:xlink="http://www.w3.org/1999/xlink" x="0px"
	 y="0px" viewBox="0 0 36 36" style="enable-background:new 0 0 36 36;" xml:space="preserve">
<style type="text/css">
	.st0{fill:#1F66B2;}
	.st1{fill:none;stroke:#FFFFFF;stroke-width:2;stroke-miterlimit:10;}
	.st2{fill:none;stroke:#FFFFFF;stroke-width:2;stroke-linecap:round;stroke-miterlimit:10;}
	.st3{fill:#FFFFFF;}
</style>
<g id="ico_ipin" transform="translate(-432 -897)">
	<path id="이미지_76" class="st0" d="M450,897L450,897c9.94,0,18,8.06,18,18l0,0c0,9.94-8.06,18-18,18l0,0c-9.94,0-18-8.06-18-18
		l0,0C432,905.06,440.06,897,450,897z"/>
	<path id="Path_00000160908217885476961920000015156481345943872658_" class="st1" d="M442.61,915.92c0-1.74,0-2.61,0.54-3.15
		c0.54-0.54,1.41-0.54,3.15-0.54h7.39c1.74,0,2.61,0,3.15,0.54c0.54,0.54,0.54,1.41,0.54,3.15v1.85c0,2.61,0,3.92-0.81,4.73
		c-0.81,0.81-2.12,0.81-4.73,0.81h-3.7c-2.61,0-3.92,0-4.73-0.81c-0.81-0.81-0.81-2.12-0.81-4.73V915.92z"/>
	<path id="Path-2" class="st2" d="M453.69,911.31v-0.92c0-2.04-1.65-3.69-3.69-3.69l0,0l0,0c-2.04,0-3.69,1.65-3.69,3.69l0,0v0.92"
		/>
	<circle id="Oval" class="st3" cx="450.11" cy="917.81" r="1.5"/>
</g>
</svg>
