<?xml version="1.0" encoding="utf-8"?>
<!-- Generator: Adobe Illustrator 25.3.1, SVG Export Plug-In . SVG Version: 6.00 Build 0)  -->
<svg version="1.1" id="레이어_1" xmlns="http://www.w3.org/2000/svg" xmlns:xlink="http://www.w3.org/1999/xlink" x="0px"
	 y="0px" viewBox="0 0 48 48" style="enable-background:new 0 0 48 48;" xml:space="preserve">
<style type="text/css">
	.st0{fill:#5B6286;}
	.st1{fill:none;stroke:#5A6286;}
	.st2{fill:none;stroke:#FFFFFF;stroke-width:2;stroke-linecap:round;stroke-miterlimit:10;}
	.st3{fill:#FFFFFF;}
</style>
<g id="ico_공동인증서" transform="translate(-1132 -769)">
	<g id="타원_75" transform="translate(1132 769)">
		<circle class="st0" cx="24" cy="24" r="24"/>
		<circle class="st1" cx="24" cy="24" r="23.5"/>
	</g>
	<g id="그룹_251" transform="translate(-17 -17.499)">
		<path id="Path_00000030476194899306256500000006400093058468647103_" class="st2" d="M1177.37,805.53v-1.1
			c0-2.44-1.98-4.42-4.42-4.42l0,0c-2.44,0-4.42,1.98-4.42,4.42l0,0v1.1"/>
		<path id="Shape" class="st3" d="M1174.11,821h-2.22c-4.19,0-6.29,0-7.59-1.33c-1.3-1.33-1.3-3.47-1.3-7.74v-1.13
			c0-3.2,0-4.81,0.98-5.8c0.98-0.99,2.55-1,5.69-1h6.67c3.14,0,4.71,0,5.69,1c0.98,1,0.98,2.6,0.98,5.8v1.13c0,4.27,0,6.41-1.3,7.74
			C1180.4,821,1178.3,821,1174.11,821z M1173,808.53c-1.88,0.04-3.37,1.61-3.33,3.49c0.03,1.39,0.91,2.63,2.22,3.11v2.46h2.22v-2.46
			c1.77-0.66,2.66-2.62,2.01-4.39C1175.63,809.44,1174.4,808.56,1173,808.53z M1173,813.07c-0.63,0.01-1.14-0.49-1.15-1.11
			c-0.01-0.63,0.49-1.14,1.11-1.15c0.63-0.01,1.14,0.49,1.15,1.11c0,0.01,0,0.01,0,0.02C1174.12,812.55,1173.62,813.06,1173,813.07z
			"/>
	</g>
</g>
</svg>
